<svg width="61" height="61" viewBox="0 0 61 61" fill="none" xmlns="http://www.w3.org/2000/svg">
    <path d="M0.625008 30.5C0.625008 47 14 60.375 30.5 60.375C47 60.375 60.375 47 60.375 30.5C60.375 14 47 0.625008 30.5 0.625008C14 0.625008 0.625008 14 0.625008 30.5ZM4.5842 30.5C4.5842 16.2657 16.2657 4.58422 30.5 4.58422C44.7343 4.58422 56.4158 16.2657 56.4158 30.5C56.4158 44.7343 44.7343 56.4158 30.5 56.4158C16.2657 56.4158 4.5842 44.7343 4.5842 30.5Z" fill="#EB5757" stroke="#EB5757" stroke-width="0.75"/>
    <path d="M28.772 42.3437H28.397V42.7187V46.1748V46.5498H28.772H32.228H32.603V46.1748V42.7187V42.3437H32.228H28.772Z" fill="#EB5757" stroke="#EB5757" stroke-width="0.75"/>
    <path d="M31.4875 39.6386H31.8431L31.8619 39.2834L32.6025 25.3357L32.603 25.3258V25.3159V14.8242V14.4492H32.228H28.772H28.397V14.8242V25.3159V25.3258L28.3975 25.3357L29.1381 39.2834L29.1569 39.6386H29.5126H31.4875Z" fill="#EB5757" stroke="#EB5757" stroke-width="0.75"/>
</svg>
